<?xml version="1.0" encoding="utf-8"?>
<!-- Generator: Adobe Illustrator 19.1.0, SVG Export Plug-In . SVG Version: 6.00 Build 0)  -->
<!DOCTYPE svg PUBLIC "-//W3C//DTD SVG 1.1//EN" "http://www.w3.org/Graphics/SVG/1.1/DTD/svg11.dtd">
<svg version="1.1" id="Calque_1" xmlns="http://www.w3.org/2000/svg" xmlns:xlink="http://www.w3.org/1999/xlink" x="0px" y="0px"
	 viewBox="0 0 520.9 316.6" style="enable-background:new 0 0 520.9 316.6;" xml:space="preserve">
<style type="text/css">
	.st0{fill:#5A666F;}
	.st1{fill:#295BA5;}
</style>
<g>
	<g>
		<path class="st0" d="M251.7,237c0-2.2-1.2-3.7-4-3.7c-2.6,0-5.3,1-6.2,1.3v22h-7.9v-29.8h5.6l0.5,1c1.8-0.8,5.5-1.9,8.1-1.9
			c8.9,0,11.9,4,11.9,11.1v19.7h-7.9V237z"/>
		<path class="st0" d="M281.3,236.5c0-2.1-1.1-3.1-4-3.1c-3.1,0-7.2,0.8-10.5,1.9v-7.6c3.4-1.5,7.8-1.8,10.5-1.8
			c9.4,0,11.9,4.4,11.9,10.9v19.9h-5.6l-0.5-0.9c-2.1,1.1-5,1.8-7.2,1.8c-8.5,0-11.3-5.1-11.3-10.7c0-5.2,2.9-9.6,11.3-10.1
			L281.3,236.5z M276.1,243.7c-2.7,0.2-3.5,1.7-3.5,3.2c0,1.4,0.4,3.2,3.5,3.2c1.7,0,4-0.8,5.2-1.4v-5.4L276.1,243.7z"/>
		<path class="st0" d="M313,257.1c-2.6,0.6-4.1,0.5-4.6,0.5c-5.1,0-10.3-2.7-10.3-8.9v-14.8H293v-5.4l5.2-1.5v-7l7.8-2.2v8.9h8.2
			v7.1H306v14.4c0,1.4,1.1,1.9,2.9,1.9c1,0,3.1-0.2,4.2-0.4V257.1z"/>
		<path class="st0" d="M323.3,212.5c2.7,0,4.9,2.2,4.9,4.9c0,2.7-2.2,4.8-4.9,4.8s-4.8-2.2-4.8-4.8
			C318.4,214.7,320.6,212.5,323.3,212.5 M327.1,257.6c-5.1,0-7.8-2-7.8-7.8v-23h7.8v21.7c0,1.1,0.5,1.7,2.2,1.7v7.5L327.1,257.6z"/>
		<path class="st0" d="M347.7,257.6c-10.9,0-13.4-6.6-13.4-15.9c0-9.3,2.5-15.9,13.4-15.9c11,0,13.4,6.6,13.4,15.9
			C361.1,251.1,358.8,257.6,347.7,257.6 M347.7,233.3c-5,0-5.6,3.8-5.6,8.4c0,4.6,0.6,8.4,5.6,8.4c4.9,0,5.5-3.8,5.5-8.4
			C353.3,237.1,352.7,233.3,347.7,233.3"/>
		<path class="st0" d="M384.6,237c0-2.2-1.2-3.7-4-3.7c-2.6,0-5.3,1-6.2,1.3v22h-7.9v-29.8h5.6l0.5,1c1.9-0.8,5.5-1.9,8.1-1.9
			c8.9,0,11.9,4,11.9,11.1v19.7h-7.9V237z"/>
		<path class="st0" d="M414.2,236.5c0-2.1-1.1-3.1-4-3.1c-3,0-7.2,0.8-10.5,1.9v-7.6c3.5-1.5,7.8-1.8,10.5-1.8
			c9.4,0,11.9,4.4,11.9,10.9v19.9h-5.6l-0.5-0.9c-2.1,1.1-5,1.9-7.2,1.9c-8.5,0-11.3-5.1-11.3-10.7c0-5.2,2.9-9.6,11.3-10.1
			L414.2,236.5z M409,243.7c-2.7,0.2-3.5,1.7-3.5,3.2c0,1.4,0.4,3.2,3.5,3.2c1.7,0,4-0.8,5.2-1.4v-5.4L409,243.7z"/>
		<path class="st0" d="M436.2,257.6c-5.1,0-7.8-2-7.8-7.8v-37.9h7.8v36.6c0,1.1,0.5,1.7,2.1,1.7v7.5H436.2z"/>
		<path class="st0" d="M451.7,245.5c0.1,2.6,1.7,4.7,5.2,4.7c3.5,0,7-0.7,10.7-2.3v7.7c-3.2,1.6-7.9,2-10.7,2
			c-10.2,0-13.5-6.4-13.5-15.9c0-9.4,3.3-15.9,13.5-15.9c10.7,0,12.2,7.5,12.2,15.9v3.7H451.7z M451.6,238.4h9.3
			c-0.2-2.7-0.8-5-4.1-5C453.4,233.3,452.1,235.5,451.6,238.4"/>
	</g>
	<g>
		<path class="st0" d="M65.3,258.6c-10.9,0-13.4-6.6-13.4-15.9c0-9.3,2.5-15.9,13.4-15.9c11,0,13.4,6.6,13.4,15.9
			C78.7,252,76.3,258.6,65.3,258.6 M65.3,234.3c-5,0-5.6,3.8-5.6,8.4c0,4.6,0.5,8.4,5.6,8.4c4.9,0,5.5-3.8,5.5-8.4
			C70.8,238.1,70.2,234.3,65.3,234.3"/>
		<path class="st0" d="M84,227.8h5.5l0.4,1.1c2.2-1.3,5.2-2,7.5-2c10.5,0,13.5,5.7,13.5,15.9c0,10.3-3,15.9-13.5,15.9
			c-1.7,0-4.1-0.5-5.7-1.1v7.3H84V227.8z M91.8,250c1.3,0.5,3.4,1.1,5.6,1.1c4.7,0,5.7-3.6,5.7-8.4c0-4.8-1-8.4-5.7-8.4
			c-2.1,0-4.2,0.6-5.6,1.1V250z"/>
		<path class="st0" d="M134.3,258c-2.6,0.6-4.1,0.5-4.6,0.5c-5.1,0-10.3-2.7-10.3-8.9v-14.8h-5.2v-5.4l5.2-1.5v-7l7.8-2.2v8.9h8.2
			v7.1h-8.2v14.4c0,1.4,1.1,1.8,2.9,1.8c1,0,3.1-0.2,4.2-0.4V258z"/>
		<path class="st0" d="M144.6,213.5c2.7,0,4.9,2.2,4.9,4.9c0,2.7-2.2,4.8-4.9,4.8s-4.8-2.2-4.8-4.8
			C139.7,215.7,141.9,213.5,144.6,213.5 M148.4,258.6c-5.1,0-7.8-2-7.8-7.8v-23h7.8v21.7c0,1.1,0.5,1.7,2.1,1.7v7.5H148.4z"/>
		<path class="st0" d="M169,258.6c-10.9,0-13.4-6.6-13.4-15.9c0-9.3,2.5-15.9,13.4-15.9c11,0,13.4,6.6,13.4,15.9
			C182.5,252,180.1,258.6,169,258.6 M169,234.3c-5,0-5.5,3.8-5.5,8.4c0,4.6,0.5,8.4,5.5,8.4c4.9,0,5.5-3.8,5.5-8.4
			C174.6,238.1,174,234.3,169,234.3"/>
		<path class="st0" d="M205.9,237.9c0-2.2-1.2-3.7-4-3.7c-2.6,0-5.3,1-6.2,1.3v22h-7.9v-29.8h5.5l0.5,1c1.8-0.8,5.5-1.9,8.1-1.9
			c9,0,11.9,4,11.9,11.1v19.7h-7.9V237.9z"/>
	</g>
	<g>
		<path class="st1" d="M260.4,179.8c-33.4,0-44.2-13.5-44.2-55.4c0-41.9,10.7-55.4,44.2-55.4c33.5,0,44.2,13.4,44.2,55.4
			c0,12.7-1.2,22.6-3.5,30.5l14.5,11.2c4.6-11.5,6.2-25.7,6.2-41.6c0-42.6-10.9-72.6-61.4-72.6c-49.9,0-61.4,30-61.4,72.6
			c0,42.6,11.5,72.6,61.4,72.6c17.7,0,30.5-3.8,39.7-10.4l-14.8-11.4C278.9,178.3,270.9,179.8,260.4,179.8"/>
		<path class="st1" d="M313.9,170.1l-12.2-9.3c-0.7-0.5-1.3-1-1.9-1.5c-3.6-2.8-6.5-5.6-8-8.4c-2.4-4.3-2.2-8.5-2.2-12
			c0-0.7,0-1.1,0-1.1v-21.5c0-15.6-6.6-24.4-26.2-24.4c-5.8,0-13.8,2.4-17.9,4.2l-1.1-2.1h-12.2v65.6h17.5v-48.4
			c2-0.8,8-2.9,13.7-2.9c6.2,0,8.8,3.3,8.8,8l0,29.5c0,0,0,0.3,0,1c0.2,3.3,1.6,14.1,12,21.9l5.5,4.3l14.1,10.8l16,12.3l10.5-13.6
			L313.9,170.1z"/>
	</g>
</g>
</svg>
