<?xml version="1.0" encoding="UTF-8" standalone="no"?>
<svg
   xmlns:dc="http://purl.org/dc/elements/1.1/"
   xmlns:cc="http://creativecommons.org/ns#"
   xmlns:rdf="http://www.w3.org/1999/02/22-rdf-syntax-ns#"
   xmlns:svg="http://www.w3.org/2000/svg"
   xmlns="http://www.w3.org/2000/svg"
   xmlns:sodipodi="http://sodipodi.sourceforge.net/DTD/sodipodi-0.dtd"
   xmlns:inkscape="http://www.inkscape.org/namespaces/inkscape"
   id="svg"
   version="1.1"
   width="175.68237"
   height="210.97"
   style="display:block"
   inkscape:version="0.92.2 5c3e80d, 2017-08-06"
   sodipodi:docname="qs_2018_logoNOIR.svg">
  <metadata
     id="metadata4329">
    <rdf:RDF>
      <cc:Work
         rdf:about="">
        <dc:format>image/svg+xml</dc:format>
        <dc:type
           rdf:resource="http://purl.org/dc/dcmitype/StillImage" />
        <dc:title></dc:title>
      </cc:Work>
    </rdf:RDF>
  </metadata>
  <defs
     id="defs4327" />
  <sodipodi:namedview
     pagecolor="#ffffff"
     bordercolor="#666666"
     borderopacity="1"
     objecttolerance="10"
     gridtolerance="10"
     guidetolerance="10"
     inkscape:pageopacity="0"
     inkscape:pageshadow="2"
     inkscape:window-width="1440"
     inkscape:window-height="878"
     id="namedview4325"
     showgrid="false"
     inkscape:zoom="1.0075"
     inkscape:cx="141.4392"
     inkscape:cy="105.53868"
     inkscape:window-x="0"
     inkscape:window-y="0"
     inkscape:window-maximized="0"
     inkscape:current-layer="svg"
     fit-margin-top="0"
     fit-margin-left="0"
     fit-margin-right="0"
     fit-margin-bottom="0" />
  <path
     style="fill:none;fill-rule:evenodd;stroke:none"
     inkscape:connector-curvature="0"
     d="M 0,105.48499 V 210.97 H 87.841191 175.68238 V 105.48499 0 H 87.841191 0 V 105.48499 M 41.544491,30.591001 c 1.340457,0.197998 1.770879,0.330999 3.210156,0.993999 1.119976,0.515 2.866258,1.602 3.172385,1.975 0.08828,0.107 0.207305,0.195 0.263964,0.195 0.05665,0 0.234096,0.138001 0.394845,0.307 0.16075,0.169 0.516506,0.505001 0.79101,0.746999 4.118874,3.629002 8.422213,11.675001 10.212417,19.094 0.08388,0.348001 0.274503,1.108001 0.423394,1.688001 3.951975,15.405 2.549151,37.064 -3.25232,50.21499 -1.251297,2.83601 -4.282696,7.90701 -4.727173,7.90701 -0.0189,0 -0.340824,0.321 -0.714589,0.713 -0.374203,0.392 -0.888513,0.876 -1.143252,1.077 -0.255179,0.2 -0.546812,0.441 -0.648707,0.53401 -2.139812,1.95999 -3.569427,1.05 -2.079641,-1.32401 0.668032,-1.065 2.464825,-4.497 2.564963,-4.899 0.03865,-0.156 0.216968,-0.648 0.395724,-1.09299 0.761584,-1.896 1.808651,-5.62601 2.210963,-7.87701 0.113755,-0.63799 0.244198,-1.349996 0.288998,-1.582001 0.08828,-0.454002 0.384744,-2.636 0.544615,-4.008998 C 53.913409,91.292 54.003886,83.979 53.655595,78.797001 53.469372,76.030001 52.952866,71.484 52.624778,69.726 52.581733,69.494 52.43592,68.687 52.300646,67.932 50.932957,60.295 48.432558,53.018999 45.449471,47.998 44.494198,46.391 43.39223,44.893001 42.25293,43.654 41.819434,43.183 41.392526,42.709 41.304245,42.601 40.847032,42.044 38.856112,40.608 37.71242,40.012 c -1.64307,-0.857 -2.488541,-1.019 -4.864646,-0.928 -2.584727,0.098 -3.284382,0.308 -5.226551,1.563 -0.957029,0.618 -1.301367,0.399 -1.304442,-0.829 -0.0027,-1.105 3.631356,-5.443 5.46548,-6.524 0.178318,-0.106 0.407583,-0.274 0.509478,-0.375 0.346534,-0.342001 1.879802,-1.184 2.872407,-1.577 0.408023,-0.161 0.848546,-0.355 0.979869,-0.43 0.73523,-0.423 3.568109,-0.591 5.400476,-0.320999 M 35.534837,43.888 c 1.300927,0.415 2.868014,1.234 3.454793,1.807 0.167338,0.163 0.362784,0.297 0.434374,0.297 1.444549,0 7.739688,10.086 7.739688,12.4 0,1.379999 -0.345656,1.413999 -1.524045,0.152 -0.487517,-0.522 -0.931994,-0.949 -0.987335,-0.949 -0.05578,0 -0.232779,-0.131 -0.393528,-0.29 -2.470533,-2.453 -6.77036,-2.23 -9.743345,0.505 -9.179843,8.446 -14.443728,30.76 -12.490578,52.949 0.223995,2.547 0.759827,6.602 1.115143,8.439 1.23329,6.379 2.468338,10.665 4.433346,15.389 1.05058,2.525 1.030816,2.45 0.821315,3.13 -0.302613,0.985 -0.730839,0.608 -2.727908,-2.398 -3.804841,-5.728 -8.148588,-17.717 -9.127139,-25.192 -0.03777,-0.29101 -0.101018,-0.623 -0.140106,-0.739 -0.0896,-0.266 -0.882366,-5.588 -1.021155,-6.856 C 14.119593,91.032 14.32558,78.303 15.898817,70.327001 15.97128,69.961 16.030139,69.601 16.030139,69.527 c 0,-0.153 0.594246,-2.901 0.940341,-4.348 C 19.708928,53.735 25.272789,45.310999 31.040881,43.877001 31.575834,43.744 32.076529,43.599 32.15295,43.556 c 0.252104,-0.142 2.626891,0.09099 3.381887,0.332 m 50.729605,14.116 c 5.171653,2.812 7.487585,17.347 4.569935,28.681 -0.363663,1.414 -0.36937,1.385 0.707563,3.483 1.053218,2.05 1.069906,1.826 -0.376839,5.029 -1.391842,3.082 -1.285998,2.977 -1.784932,1.780999 C 87.631251,92.786 87.767404,92.993 87.124846,93.554 82.404264,97.68 77.379746,91.050001 76.580389,79.641 75.590857,65.515 80.383914,54.806 86.264442,58.004 m 28.725828,-0.203001 c 0,0.114001 -0.12474,0.731001 -0.27802,1.371001 -1.10285,4.624 -1.03389,4.352 -1.24383,4.910001 -0.16778,0.447 -0.24859,0.474999 -1.36945,0.474999 -1.41687,0 -1.37295,0.103 -1.04135,-2.444 0.13484,-1.034999 0.27933,-2.198 0.32062,-2.584 0.0413,-0.387 0.12561,-0.980999 0.1871,-1.319 l 0.112,-0.615 h 1.65624 c 1.01721,0 1.65669,0.08 1.65669,0.205999 m 8.03966,6.155001 c 0.0268,6.11 0.0439,6.289 0.5209,5.435 1.43928,-2.578001 4.01566,-2.355 5.67981,0.492 2.71298,4.640001 2.81619,16.753 0.18799,21.989 -1.75815,3.501 -4.59674,3.713 -6.16338,0.46 -0.2565,-0.533 -0.38519,-0.246 -0.38738,0.864 l -10e-4,0.686 h -1.61101 c -1.59168,0 -1.61101,-0.006 -1.66635,-0.474999 -0.0746,-0.633001 -0.0746,-33.676001 0,-34.525001 l 0.0579,-0.663 1.67909,0.057 1.67908,0.05699 0.0246,5.623 m -39.729252,1.21 c -4.31213,2.21 -4.037622,20.423 0.331161,21.939999 2.683983,0.933001 4.672711,-3.754998 4.672711,-11.011999 -4.44e-4,-7.561999 -2.199987,-12.365 -5.003872,-10.928 m 30.670632,2.982 c 2.24785,1.649 3.56283,6.159 3.56591,12.231999 l 0.001,2.637001 -3.79913,0.111 c -2.08931,0.06201 -3.80484,0.133 -3.81231,0.159 -0.0619,0.217 0.21039,1.972 0.41154,2.655 0.94078,3.189 2.51006,3.295 3.83866,0.258 0.3887,-0.888 0.37947,-0.889001 1.369,0.131 1.76254,1.817 1.70368,1.699 1.40195,2.804 -1.7274,6.331 -6.37683,7.387 -8.82145,2.004 -2.85616,-6.289 -2.07437,-18.757 1.39667,-22.277001 1.35715,-1.375999 3.15263,-1.664999 4.44784,-0.713999 m 26.22236,0.0051 c 2.32735,1.732 3.69547,6.726001 3.70469,13.523 0.002,1.555001 0.30262,1.446 -3.98447,1.446 -4.08418,0 -3.90367,-0.071 -3.65375,1.441 0.70492,4.266001 2.72176,5.125 4.08769,1.742 l 0.38561,-0.955 0.54111,0.503 c 2.21447,2.059 2.27509,2.202001 1.69182,3.961001 -2.35239,7.093999 -7.87013,6.131 -9.60544,-1.676 -2.53509,-11.409 1.70237,-23.803001 6.83274,-19.985001 m 12.60169,-0.0041 c 1.32552,0.969 2.96507,4.330999 2.96507,6.079999 0,0.388 -0.43216,1.087 -0.67198,1.087 -0.0479,0 -0.21872,0.139 -0.37947,0.307 -1.17664,1.238 -1.82051,1.537 -2.02606,0.941 -1.36022,-3.941999 -3.30019,-3.017 -3.91728,1.866 -0.14845,1.176 -0.0601,4.961 0.1445,6.209001 0.60961,3.710999 2.70244,4.650999 3.60764,1.619999 0.26045,-0.871 0.48006,-1.277 0.63377,-1.17 0.0843,0.05899 0.36191,0.294001 0.61665,0.521001 0.25518,0.226999 0.77607,0.675999 1.15863,0.997998 0.98645,0.830001 1.02335,0.937001 0.74006,2.157001 -2.0287,8.736 -8.52587,7.411 -10.08637,-2.056 -1.87408,-11.373 2.31286,-22.144 7.21484,-18.559999 m -55.408907,8.328 c 0.05577,9.449 0.07467,9.664999 0.944736,10.675999 0.676372,0.786 1.569278,0.364 2.122241,-1.005 0.47742,-1.182 0.49542,-1.509999 0.54549,-9.881999 l 0.0461,-7.806001 h 1.66809 1.66767 l 0.0241,12.716 0.0237,12.716 -1.5526,-0.058 -1.55303,-0.058 -0.0281,-1.107001 c -0.0325,-1.293 -0.0655,-1.324 -0.48795,-0.452 -2.150795,4.439 -5.464604,2.717 -6.585457,-3.421 -0.202033,-1.107 -0.40451,-19.097 -0.226629,-20.153 0.04128,-0.245 0.345211,-0.288 1.697088,-0.241 l 1.646585,0.058 0.04791,8.017001 m 13.955333,-2.749001 c -0.66671,0.541001 -1.41337,2.762 -1.33738,3.978 0.0286,0.452 0.0558,0.458999 1.98476,0.515001 2.2584,0.066 2.2382,0.081 2.00673,-1.520001 -0.37243,-2.576 -1.53677,-3.88 -2.65411,-2.973 m 26.24255,-0.01601 c -0.64255,0.523001 -0.97899,1.329001 -1.28028,3.069 -0.26045,1.507001 -0.25957,1.507001 2.0019,1.441 l 1.93426,-0.05699 0.0298,-0.596999 c 0.1322,-2.624 -1.43444,-4.873 -2.68575,-3.856 m -12.91089,0.506001 c -1.99532,1.619999 -2.50743,9.092999 -0.85118,12.412999 1.87277,3.753 4.3701,-0.711999 3.93836,-7.042 -0.26353,-3.871 -1.75023,-6.456 -3.08718,-5.370999 M 64.716119,85.353 c 0.168655,0.384 0.200278,5.294001 0.05227,8.107 -0.152844,2.906 -0.271428,4.739 -0.361905,5.590997 -0.04962,0.464001 -0.178758,1.698003 -0.287241,2.741993 -0.18227,1.75901 -0.643437,5.13501 -0.83493,6.11801 -0.04524,0.232 -0.192372,1.039 -0.326769,1.79401 -2.46219,13.79999 -8.248289,26.76099 -13.986953,31.32799 -1.579824,1.258 -1.630333,1.598 -0.599516,4.048 2.57726,6.12701 4.424561,13.813 5.643357,23.48401 0.596002,4.73299 0.879728,8.06599 1.211329,14.241 0.322816,6.01299 -0.303051,7.02099 -1.375153,2.21499 -2.856156,-12.80101 -6.195,-20.857 -10.300698,-24.853 -1.363734,-1.327 -2.230287,-1.896 -4.30861,-2.827 -3.117922,-1.397 -6.751473,0.613 -9.121868,5.045 -1.180586,2.207 -1.55435,0.924 -1.057608,-3.631 0.402312,-3.68801 0.74094,-5.851 1.391844,-8.88901 0.629821,-2.93999 1.275015,-5.02499 2.321643,-7.49699 0.523972,-1.23901 0.952637,-2.411 0.952637,-2.606 0,-0.356 -0.507283,-1.577 -0.655296,-1.577 -0.04392,0 -0.383866,-0.443 -0.754556,-0.98401 -3.208838,-4.67999 -5.967052,-12.13998 -7.202538,-19.47999 -0.107166,-0.639 -0.231462,-1.351 -0.275382,-1.58299 -0.225313,-1.18201 -0.545493,-3.70801 -0.829221,-6.54001 -0.120343,-1.203 -0.270111,-4.178 -0.350487,-6.962 -0.05007,-1.749 0.159872,-7.74 0.310959,-8.861 0.03118,-0.232001 0.108923,-0.991 0.172608,-1.687 0.299099,-3.271 0.550764,-4.538 0.899493,-4.533 0.380791,0.006 0.460727,0.311 0.533196,2.032 0.09926,2.363001 0.259132,4.638 0.42032,5.982 0.187102,1.558 0.408901,3.176001 0.506405,3.691999 0.04392,0.232005 0.173047,0.944011 0.287241,1.582001 0.936826,5.243 2.934335,10.44799 5.501054,14.336 0.982943,1.489 3.485539,4.44 3.764874,4.44 0.07511,0 0.175682,0.083 0.223994,0.185 0.214773,0.45 2.72176,1.994 4.211547,2.594 0.94561,0.381 5.257735,0.383 6.208176,0.002 2.536415,-1.01501 4.280062,-2.293 6.37156,-4.671 0.776517,-0.883 2.805209,-3.746 2.987039,-4.21599 0.02547,-0.065 0.33819,-0.65701 0.694825,-1.31501 2.510941,-4.63101 4.459698,-10.555 5.960903,-18.124 0.259572,-1.308999 0.818681,-5.144999 0.981625,-6.733 0.220043,-2.147 0.613572,-2.915 1.019837,-1.988999 M 42.437839,89.87702 c 4.690718,3.823 5.924449,15.855 2.389718,23.306 -1.560058,3.289 -4.484293,4.686 -5.985058,2.86 -0.08653,-0.105 -0.43174,-0.48301 -0.766854,-0.839 -4.794372,-5.091 -4.077588,-21.738001 1.085278,-25.221 0.299099,-0.201 0.585461,-0.402 0.636408,-0.445 0.21082,-0.177999 2.341409,0.095 2.640508,0.339 M 109.917,102.783 c 1.85564,1.26601 1.65054,7.772 -0.27099,8.59701 -1.30971,0.56299 -2.43891,-1.44001 -2.43891,-4.32701 0,-3.217 1.28555,-5.242 2.7099,-4.27 m 32.01943,0.034 c 1.78933,1.475 1.55743,7.687 -0.31886,8.54499 -1.36812,0.625 -2.44286,-1.30799 -2.44286,-4.39399 0,-3.20901 1.3835,-5.288 2.76172,-4.151 m -37.25125,2.003 c 0.16031,0.231 0.16734,34.75501 0.007,35.194 -0.10673,0.294 -2.86362,0.426 -3.17634,0.153 -0.1972,-0.17201 -0.22751,-35.205 -0.0307,-35.386 0.19545,-0.179 3.07312,-0.145 3.20006,0.0389 m 19.92106,17.226 c 0.0141,9.51499 0.003,17.514 -0.0251,17.775 -0.0496,0.467 -0.0725,0.474 -1.5245,0.474 -1.62725,0 -1.76559,-0.1 -1.76559,-1.281 0,-0.683 -0.17964,-0.824 -0.37334,-0.293 -0.27758,0.761 -1.2816,1.794 -2.06733,2.12501 -4.47551,1.89098 -7.45728,-10.07401 -5.17561,-20.76601 1.22319,-5.732 4.45136,-7.895 6.87577,-4.606 0.69746,0.945 0.64784,1.329 0.64784,-5.031 0,-3.036 0.029,-5.586 0.0641,-5.666 0.0351,-0.0799 0.79584,-0.119 1.69095,-0.088 l 1.62726,0.058 0.0255,17.299 m -41.334111,-7.8 c 0.662321,0.339 0.721613,0.38601 1.464753,1.155 0.640802,0.664 1.436639,2.047 1.436639,2.496 0,0.403 -1.404136,4.02899 -1.679518,4.337 -0.116834,0.13 -0.245517,0.0681 -0.425592,-0.208 -1.221431,-1.868 -2.561888,-2.362 -3.097719,-1.141 -0.473028,1.07699 -0.169094,2.186 0.773442,2.81999 0.32106,0.21601 0.729958,0.51401 0.908277,0.66202 0.178319,0.14899 0.574484,0.44699 0.880167,0.663 2.203937,1.55498 3.367394,5.029 3.010319,8.989 -0.677253,7.51299 -5.822117,9.54399 -9.114399,3.59699 -0.705806,-1.275 -0.691311,-1.423 0.377713,-3.893 1.022036,-2.362 0.942099,-2.274 1.344852,-1.47 1.296091,2.587 3.654189,3.283 4.071,1.202 0.201152,-1.007 -0.238929,-1.853 -1.403705,-2.697 -0.331162,-0.24 -0.894227,-0.66801 -1.250857,-0.951 -0.356638,-0.282 -0.732158,-0.569 -0.834053,-0.637 -1.241638,-0.826 -2.269817,-3.929 -2.270699,-6.85301 -0.0014,-5.83599 2.736694,-9.63999 5.80938,-8.07099 m 11.674975,0.004 c 0.346974,0.179 0.762459,0.46399 0.923208,0.633 0.160312,0.16899 0.318867,0.307 0.351807,0.307 0.350486,0 1.720809,2.659 2.170553,4.21299 1.863108,6.43702 1.107678,15.74901 -1.588169,19.56701 -4.144786,5.871 -9.007236,-0.361 -9.007236,-11.544 0,-6.767 1.683475,-11.987 4.218573,-13.082 0.269675,-0.117 0.511236,-0.259 0.536269,-0.316 0.104537,-0.238 1.810847,-0.0799 2.394995,0.222 m 38.701076,0.0681 c 1.5807,0.82401 2.6383,3.189 3.12627,6.98901 0.17655,1.373 0.28152,17.697 0.1199,18.655 -0.0479,0.284 -0.26573,0.333 -1.46388,0.333 -1.54644,0 -1.63033,-0.062 -1.63033,-1.202 0,-0.89901 -0.13747,-0.895 -0.76729,0.022 -3.44601,5.01901 -7.46167,-0.37199 -6.16338,-8.27299 0.33028,-2.009 1.36462,-4.117 2.48327,-5.061 0.86567,-0.73 3.12012,-1.73 3.90015,-1.73 0.58765,0 0.21653,-2.366 -0.5209,-3.31601 -0.80813,-1.043 -2.10862,-0.51299 -3.26594,1.32901 -0.32194,0.512 -0.63552,0.931 -0.69702,0.931 -0.1502,-0.002 -1.73265,-3.94 -1.73265,-4.312 0,-0.715 1.42038,-2.92 2.54781,-3.954 0.80991,-0.74401 3.00155,-0.965 4.06399,-0.41101 m 18.67415,2.29601 c -0.005,1.479 -0.0369,3.259 -0.0698,3.956 l -0.0593,1.265 -0.7875,0.231 c -2.22238,0.651 -2.348,1.21599 -2.40904,10.845 l -0.0465,7.279 -1.56313,0.058 c -1.07386,0.04 -1.60267,-0.018 -1.69095,-0.18398 -0.17568,-0.33301 -0.19237,-24.85501 -0.0166,-25.25401 0.0765,-0.174 0.53541,-0.253 1.46388,-0.253 1.56402,0 1.57544,0.012 1.57544,1.695 0,1.58799 0.0228,1.59801 0.61005,0.283 0.70361,-1.577 1.65713,-2.521 2.60976,-2.585 l 0.39353,-0.0261 -0.01,2.69 m 7.99443,-2.359 c 2.49995,1.409 3.88126,5.651 4.12063,12.658 0.0386,1.135 0.022,1.85499 -0.0505,2.16201 l -0.10804,0.46099 h -3.69197 c -4.08022,0 -3.98228,-0.0331 -3.77585,1.275 0.68077,4.32299 2.69145,5.335 4.02444,2.027 0.45633,-1.132 0.51519,-1.156 1.16215,-0.47699 0.26439,0.27799 0.80374,0.84298 1.19903,1.25699 0.92453,0.969 0.89289,1.437 -0.26748,3.969 -1.42479,3.11 -4.49659,4.497 -6.03953,2.727 -0.0856,-0.099 -0.36453,-0.397 -0.61927,-0.664 -2.8342,-2.964 -3.94495,-11.87799 -2.38489,-19.137 1.03784,-4.828 3.9467,-7.659 6.43129,-6.258 m -49.51476,0.555 c 0.16075,0.366 0.16075,24.86701 0,25.232 -0.18622,0.425 -3.1882,0.351 -3.26067,-0.08 -0.0738,-0.436 -0.0738,-24.63499 0,-25.071 0.0725,-0.431 3.07445,-0.506 3.26067,-0.0809 m 32.02251,0.0809 c 0.11594,0.68599 0.0632,24.88299 -0.0549,25.151 -0.18623,0.425 -3.1882,0.351 -3.26068,-0.0799 -0.0738,-0.436 -0.0738,-24.63499 0,-25.071 0.0483,-0.287 0.28286,-0.334 1.65801,-0.334 1.37472,0 1.60925,0.0471 1.65757,0.334 m 15.3296,5.18999 c -0.70405,0.42701 -1.75243,3.84901 -1.35539,4.42301 0.13352,0.192 3.77848,0.249 3.99326,0.061 0.29076,-0.254 -0.15636,-2.728 -0.68868,-3.808 -0.43086,-0.87499 -1.18849,-1.137 -1.94919,-0.67601 m -65.284009,0.55801 c -2.353266,2.177 -2.152552,12.637 0.264837,13.786 1.573674,0.749 2.76744,-2.285 2.76744,-7.029 0,-4.881 -1.48408,-8.189 -3.032277,-6.757 m 25.371159,0.177 c -2.05504,0.995 -2.45955,10.002 -0.57623,12.83999 1.49199,2.24801 3.316,-0.006 3.66034,-4.52399 0.40539,-5.321 -1.06683,-9.292 -3.08411,-8.316 m 13.69489,8.721 c -1.42171,0.88399 -2.01639,2.273 -1.75243,4.093 0.46468,3.205 3.1816,0.846 3.38935,-2.941 0.0953,-1.736 -0.27626,-1.998 -1.63692,-1.152"
     id="path0" />
  <path
     style="fill:#000000;fill-rule:evenodd;stroke:none;fill-opacity:1"
     inkscape:connector-curvature="0"
     d="m 83.755,30.815 c -5.323,0.639 -10.627,2.024 -15.295,3.993 -0.873,0.368 -5.319,2.554 -6.411,3.152 -2.054,1.125 -2.498,1.756 -1.854,2.637 0.337,0.46 1.116,0.401 3.624,-0.275 9.476,-2.555 20.918,-1.722 30.063,2.187 11.982,5.122 21.921,15.51 25.938,27.111 0.261,0.754 0.556,1.561 0.656,1.794 0.1,0.232 0.383,1.228 0.629,2.215 0.245,0.986 0.536,2.125 0.645,2.531 0.656,2.43 1.098,7.671 0.962,11.393 -0.112,3.045 -0.204,3.865 -0.746,6.645 -1.603,8.221 -6.664,15.708 -13.836,20.469 -2.596,1.723 -0.723,3.293 2.426,2.035 0.286,-0.114 1.185,-0.414 1.997,-0.665 0.812,-0.252 1.776,-0.593 2.141,-0.758 0.366,-0.165 0.731,-0.3 0.812,-0.3 0.348,0 5.201,-2.538 6.646,-3.475 7.153,-4.64 13.101,-11.704 16.163,-19.191 0.287,-0.704 0.605,-1.469 0.707,-1.701 2.043,-4.683 3.135,-13.254 2.43,-19.084 -0.527,-4.369 -1.112,-6.792 -2.751,-11.401 -2.68,-7.537 -11.77,-18.085 -18.237,-21.162 -0.174,-0.083 -0.601,-0.338 -0.949,-0.567 -0.606,-0.397 -6.296,-3.24 -7.173,-3.583 -0.232,-0.091 -0.826,-0.319 -1.319,-0.507 -0.493,-0.188 -1.252,-0.48 -1.688,-0.649 -0.435,-0.169 -1.123,-0.399 -1.529,-0.511 -0.406,-0.112 -1.403,-0.39 -2.215,-0.617 -2.808,-0.784 -5.815,-1.366 -8.967,-1.733 -1.919,-0.224 -10.962,-0.212 -12.869,0.017 M 70.359,43.928 c -3.408,0.447 -7.346,1.454 -10.127,2.589 -2.679,1.094 -5.724,2.637 -7.278,3.688 -0.639,0.431 -1.777,1.202 -2.531,1.713 -2.425,1.646 -10.128,9.716 -10.128,10.612 0,0.059 -0.281,0.523 -0.624,1.032 -0.928,1.375 -3.806,7.254 -3.806,7.774 0,0.124 -0.128,0.524 -0.284,0.89 -2.972,6.963 -3.182,20.465 -0.472,30.306 0.691,2.509 0.95,3.333 1.561,4.957 4.315,11.488 11.648,20.904 21.466,27.562 1.283,0.87 2.47,1.647 2.637,1.727 0.167,0.079 0.778,0.422 1.358,0.762 1.611,0.944 2.637,0.798 2.637,-0.375 0,-0.364 -0.577,-1.112 -1.961,-2.543 -4.411,-4.561 -7.584,-9.282 -9.762,-14.526 -0.422,-1.016 -0.849,-2.037 -0.95,-2.269 -0.518,-1.19 -1.473,-4.535 -1.957,-6.857 -0.701,-3.361 -0.82,-4.458 -0.925,-8.52 -0.439,-17.114 8.422,-32.91 23.467,-41.835 10.272,-6.094 22.166,-6.739 32.017,-1.739 1.712,0.869 2.687,0.697 2.687,-0.473 0,-0.966 -4.958,-5.511 -8.673,-7.949 -6.909,-4.536 -14.907,-6.833 -23.5,-6.752 -1.857,0.018 -4.04,0.12 -4.852,0.226"
     id="path1" />
  <path
     style="fill:#ff5505;fill-rule:evenodd;stroke:none"
     d="m 89.082,30.536 c 0.667,0.042 1.759,0.042 2.426,0 0.668,-0.042 0.122,-0.076 -1.213,-0.076 -1.334,0 -1.88,0.034 -1.213,0.076"
     id="path4410"
     inkscape:connector-curvature="0" />
  <path
     style="fill:#ff5505;fill-rule:evenodd;stroke:none"
     d="m 74.103,38.975 c 0.784,0.041 2.065,0.041 2.848,0 0.784,-0.041 0.143,-0.074 -1.424,-0.074 -1.566,0 -2.207,0.033 -1.424,0.074"
     id="path4408"
     inkscape:connector-curvature="0" />
  <path
     style="fill:#ff5505;fill-rule:evenodd;stroke:none"
     d="m 74.42,43.615 c 0.609,0.043 1.606,0.043 2.215,0 0.609,-0.042 0.111,-0.077 -1.108,-0.077 -1.218,0 -1.716,0.035 -1.107,0.077"
     id="path4406"
     inkscape:connector-curvature="0" />
  <path
     style="fill:#ff5505;fill-rule:evenodd;stroke:none"
     d="m 45.562,56.065 -1.153,1.213 1.213,-1.153 c 1.127,-1.071 1.31,-1.273 1.153,-1.273 -0.032,0 -0.578,0.546 -1.213,1.213"
     id="path4404"
     inkscape:connector-curvature="0" />
  <path
     style="fill:#ff5505;fill-rule:evenodd;stroke:none"
     d="m 88.238,55.631 c 0.203,0.053 0.536,0.053 0.739,0 0.203,-0.053 0.037,-0.097 -0.369,-0.097 -0.407,0 -0.573,0.044 -0.37,0.097"
     id="path4402"
     inkscape:connector-curvature="0" />
  <path
     style="fill:#ff5505;fill-rule:evenodd;stroke:none"
     d="m 91.825,55.631 c 0.203,0.053 0.535,0.053 0.738,0 0.203,-0.053 0.037,-0.097 -0.369,-0.097 -0.406,0 -0.572,0.044 -0.369,0.097"
     id="path4400"
     inkscape:connector-curvature="0" />
  <path
     style="fill:#ff5505;fill-rule:evenodd;stroke:none"
     d="m 122.634,83.861 c 0.002,0.58 0.043,0.792 0.091,0.472 0.049,-0.321 0.047,-0.796 -0.003,-1.055 -0.05,-0.26 -0.089,0.003 -0.088,0.583"
     id="path4376"
     inkscape:connector-curvature="0" />
  <path
     style="fill:#ff5505;fill-rule:evenodd;stroke:none"
     d="m 33.176,84.283 c 0.002,0.464 0.045,0.629 0.096,0.366 0.05,-0.262 0.048,-0.642 -0.005,-0.843 -0.052,-0.202 -0.094,0.013 -0.091,0.477"
     id="path4374"
     inkscape:connector-curvature="0" />
  <path
     style="fill:#000000;fill-rule:evenodd;stroke:none;fill-opacity:1"
     d="m 145.664,85.535 c -0.185,0.283 -0.472,1.096 -0.638,1.807 -2.127,9.116 -8.238,18.727 -15.807,24.857 -0.812,0.658 -1.524,1.25 -1.582,1.315 -0.414,0.47 -5.033,3.333 -6.801,4.216 -4.762,2.378 -8.732,3.656 -14.507,4.671 -2.164,0.381 -11.982,0.379 -14.135,-0.002 -3.392,-0.6 -9.1,-2.144 -9.589,-2.594 -0.11,-0.102 -0.339,-0.185 -0.51,-0.185 -0.636,0 -6.334,-2.951 -8.572,-4.44 -5.844,-3.888 -10.392,-9.093 -12.525,-14.336 -0.26,-0.638 -0.554,-1.35 -0.654,-1.582 -0.222,-0.516 -0.727,-2.134 -1.153,-3.692 -0.367,-1.344 -0.731,-3.619 -0.957,-5.982 -0.165,-1.721 -0.347,-2.026 -1.214,-2.032 -0.794,-0.005 -1.367,1.262 -2.048,4.533 -0.145,0.696 -0.322,1.455 -0.393,1.687 -0.344,1.121 -0.822,7.112 -0.708,8.861 0.183,2.784 0.524,5.759 0.798,6.962 0.646,2.832 1.375,5.358 1.888,6.54 0.1,0.232 0.383,0.944 0.627,1.583 2.813,7.34 9.093,14.8 16.399,19.48 0.844,0.541 1.618,0.984 1.718,0.984 0.337,0 1.492,1.221 1.492,1.577 0,0.195 -0.976,1.367 -2.169,2.606 -3.668,3.806 -6.212,8.354 -7.81,13.96 -1.923,6.743 -1.373,8.632 1.763,6.057 5.397,-4.432 13.67,-6.442 20.769,-5.045 4.732,0.931 6.705,1.5 9.81,2.827 9.348,3.996 16.95,12.052 23.453,24.853 2.441,4.806 3.866,3.798 3.131,-2.215 -0.755,-6.175 -1.401,-9.508 -2.758,-14.241 -2.775,-9.671 -6.981,-17.357 -12.849,-23.484 -2.347,-2.45 -2.232,-2.79 1.365,-4.048 13.066,-4.567 26.24,-17.528 31.846,-31.328 0.306,-0.755 0.641,-1.562 0.744,-1.794 0.436,-0.983 1.486,-4.359 1.901,-6.118 0.247,-1.044 0.541,-2.278 0.654,-2.742 0.206,-0.852 0.476,-2.685 0.824,-5.591 0.337,-2.813 0.265,-7.723 -0.119,-8.107 -0.498,-0.498 -1.295,-0.411 -1.684,0.182"
     id="path4372"
     inkscape:connector-curvature="0" />
  <path
     style="fill:#ff5505;fill-rule:evenodd;stroke:none"
     d="m 122.634,88.08 c 0.002,0.58 0.043,0.793 0.091,0.472 0.049,-0.321 0.047,-0.795 -0.003,-1.055 -0.05,-0.259 -0.089,0.003 -0.088,0.583"
     id="path4370"
     inkscape:connector-curvature="0" />
  <path
     style="fill:#000000;fill-rule:evenodd;stroke:none;fill-opacity:1"
     d="m 90.612,89.538 c -0.116,0.043 -0.768,0.244 -1.449,0.445 -11.755,3.483 -13.387,20.13 -2.471,25.221 0.763,0.356 1.549,0.734 1.746,0.839 3.417,1.826 10.075,0.429 13.627,-2.86 8.048,-7.451 5.239,-19.483 -5.441,-23.306 -0.681,-0.244 -5.532,-0.517 -6.012,-0.339"
     id="path4368"
     inkscape:connector-curvature="0" />
  <path
     style="fill:#ff5505;fill-rule:evenodd;stroke:none"
     d="m 33.171,91.139 c 0,0.406 0.044,0.572 0.097,0.369 0.053,-0.203 0.053,-0.535 0,-0.738 -0.053,-0.203 -0.097,-0.037 -0.097,0.369"
     id="path4366"
     inkscape:connector-curvature="0" />
  <path
     style="fill:#ff5505;fill-rule:evenodd;stroke:none"
     d="m 130.261,104.694 -0.62,0.686 0.686,-0.62 c 0.377,-0.341 0.686,-0.649 0.686,-0.686 0,-0.163 -0.174,-0.019 -0.752,0.62"
     id="path4360"
     inkscape:connector-curvature="0" />
</svg>
