<svg id="svg" version="1.1" width="400" height="210.8626198083067" xmlns="http://www.w3.org/2000/svg" xmlns:xlink="http://www.w3.org/1999/xlink" style="display: block;"><g id="svgg"><path id="path0" d="M0.000 105.485 L 0.000 210.970 200.000 210.970 L 400.000 210.970 400.000 105.485 L 400.000 0.000 200.000 0.000 L 0.000 0.000 0.000 105.485 M94.590 30.591 C 97.642 30.789,98.622 30.922,101.899 31.585 C 104.449 32.100,108.425 33.187,109.122 33.560 C 109.323 33.667,109.594 33.755,109.723 33.755 C 109.852 33.755,110.256 33.893,110.622 34.062 C 110.988 34.231,111.798 34.567,112.423 34.809 C 121.801 38.438,131.599 46.484,135.675 53.903 C 135.866 54.251,136.300 55.011,136.639 55.591 C 145.637 70.996,142.443 92.655,129.234 105.806 C 126.385 108.642,119.483 113.713,118.471 113.713 C 118.428 113.713,117.695 114.034,116.844 114.426 C 115.992 114.818,114.821 115.302,114.241 115.503 C 113.660 115.703,112.996 115.944,112.764 116.037 C 107.892 117.997,104.637 117.087,108.029 114.713 C 109.550 113.648,113.641 110.216,113.869 109.814 C 113.957 109.658,114.363 109.166,114.770 108.721 C 116.504 106.825,118.888 103.095,119.804 100.844 C 120.063 100.206,120.360 99.494,120.462 99.262 C 120.663 98.808,121.338 96.626,121.702 95.253 C 122.752 91.292,122.958 83.979,122.165 78.797 C 121.741 76.030,120.565 71.484,119.818 69.726 C 119.720 69.494,119.388 68.687,119.080 67.932 C 115.966 60.295,110.273 53.019,103.481 47.998 C 101.306 46.391,98.797 44.893,96.203 43.654 C 95.216 43.183,94.244 42.709,94.043 42.601 C 93.002 42.044,88.469 40.608,85.865 40.012 C 82.124 39.155,80.199 38.993,74.789 39.084 C 68.904 39.182,67.311 39.392,62.889 40.647 C 60.710 41.265,59.926 41.046,59.919 39.818 C 59.913 38.713,68.187 34.375,72.363 33.294 C 72.769 33.188,73.291 33.020,73.523 32.919 C 74.312 32.577,77.803 31.735,80.063 31.342 C 80.992 31.181,81.995 30.987,82.294 30.912 C 83.968 30.489,90.418 30.321,94.590 30.591 M80.907 43.888 C 83.869 44.303,87.437 45.122,88.773 45.695 C 89.154 45.858,89.599 45.992,89.762 45.992 C 93.051 45.992,107.384 56.078,107.384 58.392 C 107.384 59.772,106.597 59.806,103.914 58.544 C 102.804 58.022,101.792 57.595,101.666 57.595 C 101.539 57.595,101.136 57.464,100.770 57.305 C 95.145 54.852,85.355 55.075,78.586 57.810 C 57.685 66.256,45.700 88.570,50.147 110.759 C 50.657 113.306,51.877 117.361,52.686 119.198 C 55.494 125.577,58.306 129.863,62.780 134.587 C 65.172 137.112,65.127 137.037,64.650 137.717 C 63.961 138.702,62.986 138.325,58.439 135.319 C 49.776 129.591,39.886 117.602,37.658 110.127 C 37.572 109.836,37.428 109.504,37.339 109.388 C 37.135 109.122,35.330 103.800,35.014 102.532 C 32.148 91.032,32.617 78.303,36.199 70.327 C 36.364 69.961,36.498 69.601,36.498 69.527 C 36.498 69.374,37.851 66.626,38.639 65.179 C 44.874 53.735,57.542 45.311,70.675 43.877 C 71.893 43.744,73.033 43.599,73.207 43.556 C 73.781 43.414,79.188 43.647,80.907 43.888 M196.410 58.004 C 208.185 60.816,213.458 75.351,206.815 86.685 C 205.987 88.099,205.974 88.070,208.426 90.168 C 210.824 92.218,210.862 91.994,207.568 95.197 C 204.399 98.279,204.640 98.174,203.504 96.978 C 199.522 92.786,199.832 92.993,198.369 93.554 C 187.621 97.680,176.181 91.050,174.361 79.641 C 172.108 65.515,183.021 54.806,196.410 58.004 M261.814 57.801 C 261.814 57.915,261.530 58.532,261.181 59.172 C 258.670 63.796,258.827 63.524,258.349 64.082 C 257.967 64.529,257.783 64.557,255.231 64.557 C 252.005 64.557,252.105 64.660,252.860 62.113 C 253.167 61.078,253.496 59.915,253.590 59.529 C 253.684 59.142,253.876 58.548,254.016 58.210 L 254.271 57.595 258.042 57.595 C 260.358 57.595,261.814 57.675,261.814 57.801 M280.119 63.956 C 280.180 70.066,280.219 70.245,281.305 69.391 C 284.582 66.813,290.448 67.036,294.237 69.883 C 300.414 74.523,300.649 86.636,294.665 91.872 C 290.662 95.373,284.199 95.585,280.632 92.332 C 280.048 91.799,279.755 92.086,279.750 93.196 L 279.747 93.882 276.079 93.882 C 272.455 93.882,272.411 93.876,272.285 93.407 C 272.115 92.774,272.115 59.731,272.285 58.882 L 272.417 58.219 276.240 58.276 L 280.063 58.333 280.119 63.956 M189.662 65.166 C 179.844 67.376,180.469 85.589,190.416 87.106 C 196.527 88.039,201.055 83.351,201.055 76.094 C 201.054 68.532,196.046 63.729,189.662 65.166 M259.494 68.148 C 264.612 69.797,267.606 74.307,267.613 80.380 L 267.616 83.017 258.966 83.128 C 254.209 83.190,250.303 83.261,250.286 83.287 C 250.145 83.504,250.765 85.259,251.223 85.942 C 253.365 89.131,256.938 89.237,259.963 86.200 C 260.848 85.312,260.827 85.311,263.080 86.331 C 267.093 88.148,266.959 88.030,266.272 89.135 C 262.339 95.466,251.753 96.522,246.187 91.139 C 239.684 84.850,241.464 72.382,249.367 68.862 C 252.457 67.486,256.545 67.197,259.494 68.148 M319.198 68.153 C 324.497 69.885,327.612 74.879,327.633 81.676 C 327.638 83.231,328.322 83.122,318.561 83.122 C 309.262 83.122,309.673 83.051,310.242 84.563 C 311.847 88.829,316.439 89.688,319.549 86.305 L 320.427 85.350 321.659 85.853 C 326.701 87.912,326.839 88.055,325.511 89.814 C 320.155 96.908,307.592 95.945,303.641 88.138 C 297.869 76.729,307.517 64.335,319.198 68.153 M347.890 68.149 C 350.908 69.118,354.641 72.480,354.641 74.229 C 354.641 74.617,353.657 75.316,353.111 75.316 C 353.002 75.316,352.613 75.455,352.247 75.623 C 349.568 76.861,348.102 77.160,347.634 76.564 C 344.537 72.622,340.120 73.547,338.715 78.430 C 338.377 79.606,338.578 83.391,339.044 84.639 C 340.432 88.350,345.197 89.290,347.258 86.259 C 347.851 85.388,348.351 84.982,348.701 85.089 C 348.893 85.148,349.525 85.383,350.105 85.610 C 350.686 85.837,351.872 86.286,352.743 86.608 C 354.989 87.438,355.073 87.545,354.428 88.765 C 349.809 97.501,335.016 96.176,331.463 86.709 C 327.196 75.336,336.729 64.565,347.890 68.149 M221.733 76.477 C 221.860 85.926,221.903 86.142,223.884 87.153 C 225.424 87.939,227.457 87.517,228.716 86.148 C 229.803 84.966,229.844 84.638,229.958 76.266 L 230.063 68.460 233.861 68.460 L 237.658 68.460 237.713 81.176 L 237.767 93.892 234.232 93.834 L 230.696 93.776 230.632 92.669 C 230.558 91.376,230.483 91.345,229.521 92.217 C 224.624 96.656,217.079 94.934,214.527 88.796 C 214.067 87.689,213.606 69.699,214.011 68.643 C 214.105 68.398,214.797 68.355,217.875 68.402 L 221.624 68.460 221.733 76.477 M253.507 73.728 C 251.989 74.269,250.289 76.490,250.462 77.706 C 250.527 78.158,250.589 78.165,254.981 78.221 C 260.123 78.287,260.077 78.302,259.550 76.701 C 258.702 74.125,256.051 72.821,253.507 73.728 M313.257 73.712 C 311.794 74.235,311.028 75.041,310.342 76.781 C 309.749 78.288,309.751 78.288,314.900 78.222 L 319.304 78.165 319.372 77.568 C 319.673 74.944,316.106 72.695,313.257 73.712 M283.861 74.218 C 279.318 75.838,278.152 83.311,281.923 86.631 C 286.187 90.384,291.873 85.919,290.890 79.589 C 290.290 75.718,286.905 73.133,283.861 74.218 M147.348 85.353 C 147.732 85.737,147.804 90.647,147.467 93.460 C 147.119 96.366,146.849 98.199,146.643 99.051 C 146.530 99.515,146.236 100.749,145.989 101.793 C 145.574 103.552,144.524 106.928,144.088 107.911 C 143.985 108.143,143.650 108.950,143.344 109.705 C 137.738 123.505,124.564 136.466,111.498 141.033 C 107.901 142.291,107.786 142.631,110.133 145.081 C 116.001 151.208,120.207 158.894,122.982 168.565 C 124.339 173.298,124.985 176.631,125.740 182.806 C 126.475 188.819,125.050 189.827,122.609 185.021 C 116.106 172.220,108.504 164.164,99.156 160.168 C 96.051 158.841,94.078 158.272,89.346 157.341 C 82.247 155.944,73.974 157.954,68.577 162.386 C 65.889 164.593,65.038 163.310,66.169 158.755 C 67.085 155.067,67.856 152.904,69.338 149.866 C 70.772 146.926,72.241 144.841,74.624 142.369 C 75.817 141.130,76.793 139.958,76.793 139.763 C 76.793 139.407,75.638 138.186,75.301 138.186 C 75.201 138.186,74.427 137.743,73.583 137.202 C 66.277 132.522,59.997 125.062,57.184 117.722 C 56.940 117.083,56.657 116.371,56.557 116.139 C 56.044 114.957,55.315 112.431,54.669 109.599 C 54.395 108.396,54.054 105.421,53.871 102.637 C 53.757 100.888,54.235 94.897,54.579 93.776 C 54.650 93.544,54.827 92.785,54.972 92.089 C 55.653 88.818,56.226 87.551,57.020 87.556 C 57.887 87.562,58.069 87.867,58.234 89.588 C 58.460 91.951,58.824 94.226,59.191 95.570 C 59.617 97.128,60.122 98.746,60.344 99.262 C 60.444 99.494,60.738 100.206,60.998 100.844 C 63.131 106.087,67.679 111.292,73.523 115.180 C 75.761 116.669,81.459 119.620,82.095 119.620 C 82.266 119.620,82.495 119.703,82.605 119.805 C 83.094 120.255,88.802 121.799,92.194 122.399 C 94.347 122.780,104.165 122.782,106.329 122.401 C 112.104 121.386,116.074 120.108,120.836 117.730 C 122.604 116.847,127.223 113.984,127.637 113.514 C 127.695 113.449,128.407 112.857,129.219 112.199 C 134.936 107.568,139.373 101.644,142.791 94.075 C 143.382 92.766,144.655 88.930,145.026 87.342 C 145.527 85.195,146.423 84.427,147.348 85.353 M96.624 89.877 C 107.304 93.700,110.113 105.732,102.065 113.183 C 98.513 116.472,91.855 117.869,88.438 116.043 C 88.241 115.938,87.455 115.560,86.692 115.204 C 75.776 110.113,77.408 93.466,89.163 89.983 C 89.844 89.782,90.496 89.581,90.612 89.538 C 91.092 89.360,95.943 89.633,96.624 89.877 M250.263 102.783 C 254.488 104.049,254.021 110.555,249.646 111.380 C 246.664 111.943,244.093 109.940,244.093 107.053 C 244.093 103.836,247.020 101.811,250.263 102.783 M323.166 102.817 C 327.240 104.292,326.712 110.504,322.440 111.362 C 319.325 111.987,316.878 110.054,316.878 106.968 C 316.878 103.759,320.028 101.680,323.166 102.817 M238.351 104.820 C 238.716 105.051,238.732 139.575,238.367 140.014 C 238.124 140.308,231.847 140.440,231.135 140.167 C 230.686 139.995,230.617 104.962,231.065 104.781 C 231.510 104.602,238.062 104.636,238.351 104.820 M283.708 122.046 C 283.740 131.561,283.714 139.560,283.651 139.821 C 283.538 140.288,283.486 140.295,280.180 140.295 C 276.475 140.295,276.160 140.195,276.160 139.014 C 276.160 138.331,275.751 138.190,275.310 138.721 C 274.678 139.482,272.392 140.515,270.603 140.846 C 260.413 142.737,253.624 130.772,258.819 120.080 C 261.604 114.348,268.954 112.185,274.474 115.474 C 276.062 116.419,275.949 116.803,275.949 110.443 C 275.949 107.407,276.015 104.857,276.095 104.777 C 276.175 104.697,277.907 104.658,279.945 104.689 L 283.650 104.747 283.708 122.046 M189.597 114.246 C 191.105 114.585,191.240 114.632,192.932 115.401 C 194.391 116.065,196.203 117.448,196.203 117.897 C 196.203 118.300,193.006 121.926,192.379 122.234 C 192.113 122.364,191.820 122.302,191.410 122.026 C 188.629 120.158,185.577 119.664,184.357 120.885 C 183.280 121.962,183.972 123.071,186.118 123.705 C 186.849 123.921,187.780 124.219,188.186 124.367 C 188.592 124.516,189.494 124.814,190.190 125.030 C 195.208 126.585,197.857 130.059,197.044 134.019 C 195.502 141.532,183.788 143.563,176.292 137.616 C 174.685 136.341,174.718 136.193,177.152 133.723 C 179.479 131.361,179.297 131.449,180.214 132.253 C 183.165 134.840,188.534 135.536,189.483 133.455 C 189.941 132.448,188.939 131.602,186.287 130.758 C 185.533 130.518,184.251 130.090,183.439 129.807 C 182.627 129.525,181.772 129.238,181.540 129.170 C 178.713 128.344,176.372 125.241,176.370 122.317 C 176.367 116.481,182.601 112.677,189.597 114.246 M216.179 114.250 C 216.969 114.429,217.915 114.714,218.281 114.883 C 218.646 115.052,219.007 115.190,219.082 115.190 C 219.880 115.190,223.000 117.849,224.024 119.403 C 228.266 125.840,226.546 135.152,220.408 138.970 C 210.971 144.841,199.900 138.609,199.900 127.426 C 199.900 120.659,203.733 115.439,209.505 114.344 C 210.119 114.227,210.669 114.085,210.726 114.028 C 210.964 113.790,214.849 113.948,216.179 114.250 M304.295 114.318 C 307.894 115.142,310.302 117.507,311.413 121.307 C 311.815 122.680,312.054 139.004,311.686 139.962 C 311.577 140.246,311.081 140.295,308.353 140.295 C 304.832 140.295,304.641 140.233,304.641 139.093 C 304.641 138.194,304.328 138.198,302.894 139.115 C 295.048 144.134,285.905 138.743,288.861 130.842 C 289.613 128.833,291.968 126.725,294.515 125.781 C 296.486 125.051,301.619 124.051,303.395 124.051 C 304.733 124.051,303.888 121.685,302.209 120.735 C 300.369 119.692,297.408 120.222,294.773 122.064 C 294.040 122.576,293.326 122.995,293.186 122.995 C 292.844 122.993,289.241 119.055,289.241 118.683 C 289.241 117.968,292.475 115.763,295.042 114.729 C 296.886 113.985,301.876 113.764,304.295 114.318 M346.813 116.614 C 346.800 118.093,346.729 119.873,346.654 120.570 L 346.519 121.835 344.726 122.066 C 339.666 122.717,339.380 123.282,339.241 132.911 L 339.135 140.190 335.576 140.248 C 333.131 140.288,331.927 140.230,331.726 140.064 C 331.326 139.731,331.288 115.209,331.688 114.810 C 331.862 114.636,332.907 114.557,335.021 114.557 C 338.582 114.557,338.608 114.569,338.608 116.252 C 338.608 117.840,338.660 117.850,339.997 116.535 C 341.599 114.958,343.770 114.014,345.939 113.950 L 346.835 113.924 346.813 116.614 M365.015 114.255 C 370.707 115.664,373.852 119.906,374.397 126.913 C 374.485 128.048,374.447 128.768,374.282 129.075 L 374.036 129.536 365.630 129.536 C 356.340 129.536,356.563 129.503,357.033 130.811 C 358.583 135.134,363.161 136.146,366.196 132.838 C 367.235 131.706,367.369 131.682,368.842 132.361 C 369.444 132.639,370.672 133.204,371.572 133.618 C 373.677 134.587,373.605 135.055,370.963 137.587 C 367.719 140.697,360.725 142.084,357.212 140.314 C 357.017 140.215,356.382 139.917,355.802 139.650 C 349.349 136.686,346.820 127.772,350.372 120.513 C 352.735 115.685,359.358 112.854,365.015 114.255 M252.278 114.810 C 252.644 115.176,252.644 139.677,252.278 140.042 C 251.854 140.467,245.019 140.393,244.854 139.962 C 244.686 139.526,244.686 115.327,244.854 114.891 C 245.019 114.460,251.854 114.385,252.278 114.810 M325.188 114.891 C 325.452 115.577,325.332 139.774,325.063 140.042 C 324.639 140.467,317.804 140.393,317.639 139.962 C 317.471 139.526,317.471 115.327,317.639 114.891 C 317.749 114.604,318.283 114.557,321.414 114.557 C 324.544 114.557,325.078 114.604,325.188 114.891 M360.091 120.081 C 358.488 120.508,356.101 123.930,357.005 124.504 C 357.309 124.696,365.608 124.753,366.097 124.565 C 366.759 124.311,365.741 121.837,364.529 120.757 C 363.548 119.882,361.823 119.620,360.091 120.081 M211.450 120.639 C 206.092 122.816,206.549 133.276,212.053 134.425 C 215.636 135.174,218.354 132.140,218.354 127.396 C 218.354 122.515,214.975 119.207,211.450 120.639 M269.216 120.816 C 264.537 121.811,263.616 130.818,267.904 133.656 C 271.301 135.904,275.454 133.650,276.238 129.132 C 277.161 123.811,273.809 119.840,269.216 120.816 M300.397 129.537 C 297.160 130.421,295.806 131.810,296.407 133.630 C 297.465 136.835,303.651 134.476,304.124 130.689 C 304.341 128.953,303.495 128.691,300.397 129.537 " stroke="none" fill="#ffffff" fill-rule="evenodd"></path><path id="path1" d="M83.755 30.815 C 78.432 31.454,73.128 32.839,68.460 34.808 C 67.587 35.176,63.141 37.362,62.049 37.960 C 59.995 39.085,59.551 39.716,60.195 40.597 C 60.532 41.057,61.311 40.998,63.819 40.322 C 73.295 37.767,84.737 38.600,93.882 42.509 C 105.864 47.631,115.803 58.019,119.820 69.620 C 120.081 70.374,120.376 71.181,120.476 71.414 C 120.576 71.646,120.859 72.642,121.105 73.629 C 121.350 74.615,121.641 75.754,121.750 76.160 C 122.406 78.590,122.848 83.831,122.712 87.553 C 122.600 90.598,122.508 91.418,121.966 94.198 C 120.363 102.419,115.302 109.906,108.130 114.667 C 105.534 116.390,107.407 117.960,110.556 116.702 C 110.842 116.588,111.741 116.288,112.553 116.037 C 113.365 115.785,114.329 115.444,114.694 115.279 C 115.060 115.114,115.425 114.979,115.506 114.979 C 115.854 114.979,120.707 112.441,122.152 111.504 C 129.305 106.864,135.253 99.800,138.315 92.313 C 138.602 91.609,138.920 90.844,139.022 90.612 C 141.065 85.929,142.157 77.358,141.452 71.528 C 140.925 67.159,140.340 64.736,138.701 60.127 C 136.021 52.590,126.931 42.042,120.464 38.965 C 120.290 38.882,119.863 38.627,119.515 38.398 C 118.909 38.001,113.219 35.158,112.342 34.815 C 112.110 34.724,111.516 34.496,111.023 34.308 C 110.530 34.120,109.771 33.828,109.335 33.659 C 108.900 33.490,108.212 33.260,107.806 33.148 C 107.400 33.036,106.403 32.758,105.591 32.531 C 102.783 31.747,99.776 31.165,96.624 30.798 C 94.705 30.574,85.662 30.586,83.755 30.815 M70.359 43.928 C 66.951 44.375,63.013 45.382,60.232 46.517 C 57.553 47.611,54.508 49.154,52.954 50.205 C 52.315 50.636,51.177 51.407,50.423 51.918 C 47.998 53.564,40.295 61.634,40.295 62.530 C 40.295 62.589,40.014 63.053,39.671 63.562 C 38.743 64.937,35.865 70.816,35.865 71.336 C 35.865 71.460,35.737 71.860,35.581 72.226 C 32.609 79.189,32.399 92.691,35.109 102.532 C 35.800 105.041,36.059 105.865,36.670 107.489 C 40.985 118.977,48.318 128.393,58.136 135.051 C 59.419 135.921,60.606 136.698,60.773 136.778 C 60.940 136.857,61.551 137.200,62.131 137.540 C 63.742 138.484,64.768 138.338,64.768 137.165 C 64.768 136.801,64.191 136.053,62.807 134.622 C 58.396 130.061,55.223 125.340,53.045 120.096 C 52.623 119.080,52.196 118.059,52.095 117.827 C 51.577 116.637,50.622 113.292,50.138 110.970 C 49.437 107.609,49.318 106.512,49.213 102.450 C 48.774 85.336,57.635 69.540,72.680 60.615 C 82.952 54.521,94.846 53.876,104.697 58.876 C 106.409 59.745,107.384 59.573,107.384 58.403 C 107.384 57.437,102.426 52.892,98.711 50.454 C 91.802 45.918,83.804 43.621,75.211 43.702 C 73.354 43.720,71.171 43.822,70.359 43.928 " stroke="none" fill="#28347c" fill-rule="evenodd"></path><path id="path2" d="M89.082 30.536 C 89.749 30.578,90.841 30.578,91.508 30.536 C 92.176 30.494,91.630 30.460,90.295 30.460 C 88.961 30.460,88.415 30.494,89.082 30.536 M74.103 38.975 C 74.887 39.016,76.168 39.016,76.951 38.975 C 77.735 38.934,77.094 38.901,75.527 38.901 C 73.961 38.901,73.320 38.934,74.103 38.975 M74.420 43.615 C 75.029 43.658,76.026 43.658,76.635 43.615 C 77.244 43.573,76.746 43.538,75.527 43.538 C 74.309 43.538,73.811 43.573,74.420 43.615 M45.562 56.065 L 44.409 57.278 45.622 56.125 C 46.749 55.054,46.932 54.852,46.775 54.852 C 46.743 54.852,46.197 55.398,45.562 56.065 M88.238 55.631 C 88.441 55.684,88.774 55.684,88.977 55.631 C 89.180 55.578,89.014 55.534,88.608 55.534 C 88.201 55.534,88.035 55.578,88.238 55.631 M91.825 55.631 C 92.028 55.684,92.360 55.684,92.563 55.631 C 92.766 55.578,92.600 55.534,92.194 55.534 C 91.788 55.534,91.622 55.578,91.825 55.631 M187.236 58.027 C 177.879 60.473,172.692 69.180,174.361 79.641 C 176.181 91.050,187.621 97.680,198.369 93.554 C 199.629 93.071,199.878 93.165,201.297 94.657 C 202.034 95.432,203.027 96.476,203.504 96.978 C 204.640 98.174,204.399 98.279,207.568 95.197 C 210.862 91.994,210.824 92.218,208.426 90.168 C 205.974 88.070,205.987 88.099,206.815 86.685 C 211.859 78.079,210.057 66.686,202.743 60.926 C 199.082 58.043,192.141 56.745,187.236 58.027 M254.016 58.210 C 253.876 58.548,253.684 59.142,253.590 59.529 C 253.496 59.915,253.167 61.078,252.860 62.113 C 252.105 64.660,252.005 64.557,255.231 64.557 C 258.476 64.557,258.135 64.780,259.923 61.488 C 260.267 60.855,260.833 59.813,261.181 59.172 C 261.530 58.532,261.814 57.915,261.814 57.801 C 261.814 57.675,260.358 57.595,258.042 57.595 L 254.271 57.595 254.016 58.210 M272.285 58.882 C 272.115 59.731,272.115 92.774,272.285 93.407 C 272.411 93.876,272.455 93.882,276.079 93.882 L 279.747 93.882 279.750 93.196 C 279.755 92.086,280.048 91.799,280.632 92.332 C 284.199 95.585,290.662 95.373,294.665 91.872 C 300.649 86.636,300.414 74.523,294.237 69.883 C 290.448 67.036,284.582 66.813,281.305 69.391 C 280.219 70.245,280.180 70.066,280.119 63.956 L 280.063 58.333 276.240 58.276 L 272.417 58.219 272.285 58.882 M195.253 65.544 C 202.716 69.004,203.182 82.587,195.962 86.225 C 187.019 90.730,178.958 79.450,184.100 69.626 C 186.122 65.763,191.489 63.799,195.253 65.544 M253.270 67.709 C 244.470 68.817,239.546 78.845,243.573 87.460 C 247.299 95.429,258.789 97.194,264.948 90.743 C 266.950 88.646,267.040 88.162,265.559 87.470 C 260.684 85.191,260.916 85.243,259.963 86.200 C 256.938 89.237,253.365 89.131,251.223 85.942 C 250.765 85.259,250.145 83.504,250.286 83.287 C 250.303 83.261,254.209 83.190,258.966 83.128 L 267.616 83.017 267.613 80.380 C 267.603 71.889,261.675 66.652,253.270 67.709 M312.975 67.709 C 303.869 68.855,299.131 79.225,303.641 88.138 C 307.592 95.945,320.155 96.908,325.511 89.814 C 326.839 88.055,326.701 87.912,321.659 85.853 L 320.427 85.350 319.549 86.305 C 316.439 89.688,311.847 88.829,310.242 84.563 C 309.673 83.051,309.262 83.122,318.561 83.122 C 328.322 83.122,327.638 83.231,327.633 81.676 C 327.603 72.274,321.665 66.616,312.975 67.709 M341.456 67.711 C 332.054 68.884,327.260 80.336,332.613 88.833 C 337.521 96.622,350.294 96.583,354.428 88.765 C 355.073 87.545,354.989 87.438,352.743 86.608 C 351.872 86.286,350.686 85.837,350.105 85.610 C 349.525 85.383,348.893 85.148,348.701 85.089 C 348.351 84.982,347.851 85.388,347.258 86.259 C 345.197 89.290,340.432 88.350,339.044 84.639 C 336.828 78.712,340.993 72.184,345.492 74.534 C 346.131 74.868,346.799 75.502,347.634 76.564 C 348.102 77.160,349.568 76.861,352.247 75.623 C 352.613 75.455,353.002 75.316,353.111 75.316 C 356.782 75.316,352.682 69.688,347.890 68.149 C 346.524 67.710,343.248 67.487,341.456 67.711 M214.011 68.643 C 213.606 69.699,214.067 87.689,214.527 88.796 C 217.079 94.934,224.624 96.656,229.521 92.217 C 230.483 91.345,230.558 91.376,230.632 92.669 L 230.696 93.776 234.232 93.834 L 237.767 93.892 237.713 81.176 L 237.658 68.460 233.861 68.460 L 230.063 68.460 229.958 76.266 C 229.844 84.638,229.803 84.966,228.716 86.148 C 227.457 87.517,225.424 87.939,223.884 87.153 C 221.903 86.142,221.860 85.926,221.733 76.477 L 221.624 68.460 217.875 68.402 C 214.797 68.355,214.105 68.398,214.011 68.643 M256.646 73.652 C 258.255 74.094,260.372 77.149,259.662 78.005 C 259.207 78.554,250.543 78.272,250.462 77.706 C 250.110 75.234,253.741 72.854,256.646 73.652 M316.209 73.548 C 317.675 73.841,319.529 76.197,319.372 77.568 L 319.304 78.165 314.900 78.222 C 309.751 78.288,309.749 78.288,310.342 76.781 C 311.388 74.127,313.443 72.995,316.209 73.548 M287.915 74.751 C 294.018 78.604,290.583 89.517,283.835 87.712 C 278.939 86.403,278.197 77.234,282.784 74.726 C 284.379 73.855,286.511 73.865,287.915 74.751 M122.634 83.861 C 122.636 84.441,122.677 84.653,122.725 84.333 C 122.774 84.012,122.772 83.537,122.722 83.278 C 122.672 83.018,122.633 83.281,122.634 83.861 M33.176 84.283 C 33.178 84.747,33.221 84.912,33.272 84.649 C 33.322 84.387,33.320 84.007,33.267 83.806 C 33.215 83.604,33.173 83.819,33.176 84.283 M145.664 85.535 C 145.479 85.818,145.192 86.631,145.026 87.342 C 142.899 96.458,136.788 106.069,129.219 112.199 C 128.407 112.857,127.695 113.449,127.637 113.514 C 127.223 113.984,122.604 116.847,120.836 117.730 C 116.074 120.108,112.104 121.386,106.329 122.401 C 104.165 122.782,94.347 122.780,92.194 122.399 C 88.802 121.799,83.094 120.255,82.605 119.805 C 82.495 119.703,82.266 119.620,82.095 119.620 C 81.459 119.620,75.761 116.669,73.523 115.180 C 67.679 111.292,63.131 106.087,60.998 100.844 C 60.738 100.206,60.444 99.494,60.344 99.262 C 60.122 98.746,59.617 97.128,59.191 95.570 C 58.824 94.226,58.460 91.951,58.234 89.588 C 58.069 87.867,57.887 87.562,57.020 87.556 C 56.226 87.551,55.653 88.818,54.972 92.089 C 54.827 92.785,54.650 93.544,54.579 93.776 C 54.235 94.897,53.757 100.888,53.871 102.637 C 54.054 105.421,54.395 108.396,54.669 109.599 C 55.315 112.431,56.044 114.957,56.557 116.139 C 56.657 116.371,56.940 117.083,57.184 117.722 C 59.997 125.062,66.277 132.522,73.583 137.202 C 74.427 137.743,75.201 138.186,75.301 138.186 C 75.638 138.186,76.793 139.407,76.793 139.763 C 76.793 139.958,75.817 141.130,74.624 142.369 C 70.956 146.175,68.412 150.723,66.814 156.329 C 64.891 163.072,65.441 164.961,68.577 162.386 C 73.974 157.954,82.247 155.944,89.346 157.341 C 94.078 158.272,96.051 158.841,99.156 160.168 C 108.504 164.164,116.106 172.220,122.609 185.021 C 125.050 189.827,126.475 188.819,125.740 182.806 C 124.985 176.631,124.339 173.298,122.982 168.565 C 120.207 158.894,116.001 151.208,110.133 145.081 C 107.786 142.631,107.901 142.291,111.498 141.033 C 124.564 136.466,137.738 123.505,143.344 109.705 C 143.650 108.950,143.985 108.143,144.088 107.911 C 144.524 106.928,145.574 103.552,145.989 101.793 C 146.236 100.749,146.530 99.515,146.643 99.051 C 146.849 98.199,147.119 96.366,147.467 93.460 C 147.804 90.647,147.732 85.737,147.348 85.353 C 146.850 84.855,146.053 84.942,145.664 85.535 M122.634 88.080 C 122.636 88.660,122.677 88.873,122.725 88.552 C 122.774 88.231,122.772 87.757,122.722 87.497 C 122.672 87.238,122.633 87.500,122.634 88.080 M90.612 89.538 C 90.496 89.581,89.844 89.782,89.163 89.983 C 77.408 93.466,75.776 110.113,86.692 115.204 C 87.455 115.560,88.241 115.938,88.438 116.043 C 91.855 117.869,98.513 116.472,102.065 113.183 C 110.113 105.732,107.304 93.700,96.624 89.877 C 95.943 89.633,91.092 89.360,90.612 89.538 M33.171 91.139 C 33.171 91.545,33.215 91.711,33.268 91.508 C 33.321 91.305,33.321 90.973,33.268 90.770 C 33.215 90.567,33.171 90.733,33.171 91.139 M246.888 102.813 C 242.844 104.280,243.340 110.457,247.574 111.350 C 251.172 112.109,253.784 109.382,253.076 105.607 C 252.668 103.434,249.330 101.927,246.888 102.813 M319.726 102.811 C 315.616 104.420,315.996 110.460,320.265 111.375 C 324.918 112.373,327.931 107.046,324.572 103.761 C 323.399 102.615,321.286 102.201,319.726 102.811 M130.261 104.694 L 129.641 105.380 130.327 104.760 C 130.704 104.419,131.013 104.111,131.013 104.074 C 131.013 103.911,130.839 104.055,130.261 104.694 M231.065 104.781 C 230.617 104.962,230.686 139.995,231.135 140.167 C 231.847 140.440,238.124 140.308,238.367 140.014 C 238.732 139.575,238.716 105.051,238.351 104.820 C 238.062 104.636,231.510 104.602,231.065 104.781 M276.095 104.777 C 276.015 104.857,275.949 107.407,275.949 110.443 C 275.949 116.803,276.062 116.419,274.474 115.474 C 268.954 112.185,261.604 114.348,258.819 120.080 C 253.624 130.772,260.413 142.737,270.603 140.846 C 272.392 140.515,274.678 139.482,275.310 138.721 C 275.751 138.190,276.160 138.331,276.160 139.014 C 276.160 140.195,276.475 140.295,280.180 140.295 C 283.486 140.295,283.538 140.288,283.651 139.821 C 283.714 139.560,283.740 131.561,283.708 122.046 L 283.650 104.747 279.945 104.689 C 277.907 104.658,276.175 104.697,276.095 104.777 M183.217 114.321 C 175.614 116.352,173.809 124.396,180.063 128.376 C 180.643 128.745,181.308 129.102,181.540 129.170 C 181.772 129.238,182.627 129.525,183.439 129.807 C 184.251 130.090,185.533 130.518,186.287 130.758 C 188.939 131.602,189.941 132.448,189.483 133.455 C 188.534 135.536,183.165 134.840,180.214 132.253 C 179.297 131.449,179.479 131.361,177.152 133.723 C 174.718 136.193,174.685 136.341,176.292 137.616 C 183.788 143.563,195.502 141.532,197.044 134.019 C 197.857 130.059,195.208 126.585,190.190 125.030 C 189.494 124.814,188.592 124.516,188.186 124.367 C 187.780 124.219,186.849 123.921,186.118 123.705 C 183.972 123.071,183.280 121.962,184.357 120.885 C 185.577 119.664,188.629 120.158,191.410 122.026 C 191.820 122.302,192.113 122.364,192.379 122.234 C 193.006 121.926,196.203 118.300,196.203 117.897 C 196.203 117.264,194.028 115.820,191.456 114.745 C 189.492 113.924,185.477 113.718,183.217 114.321 M210.726 114.028 C 210.669 114.085,210.119 114.227,209.505 114.344 C 201.623 115.839,197.451 125.626,201.141 133.966 C 204.662 141.927,216.812 143.512,222.951 136.812 C 227.691 131.639,227.404 121.984,222.375 117.441 C 221.520 116.668,219.357 115.190,219.082 115.190 C 219.007 115.190,218.646 115.052,218.281 114.883 C 216.713 114.159,211.217 113.537,210.726 114.028 M296.835 114.260 C 293.883 114.903,289.241 117.606,289.241 118.683 C 289.241 119.055,292.844 122.993,293.186 122.995 C 293.326 122.995,294.040 122.576,294.773 122.064 C 297.408 120.222,300.369 119.692,302.209 120.735 C 303.888 121.685,304.733 124.051,303.395 124.051 C 301.619 124.051,296.486 125.051,294.515 125.781 C 291.968 126.725,289.613 128.833,288.861 130.842 C 285.905 138.743,295.048 144.134,302.894 139.115 C 304.328 138.198,304.641 138.194,304.641 139.093 C 304.641 140.233,304.832 140.295,308.353 140.295 C 311.081 140.295,311.577 140.246,311.686 139.962 C 312.054 139.004,311.815 122.680,311.413 121.307 C 310.302 117.507,307.894 115.142,304.295 114.318 C 302.690 113.950,298.413 113.917,296.835 114.260 M344.009 114.258 C 342.293 114.726,341.211 115.339,339.997 116.535 C 338.660 117.850,338.608 117.840,338.608 116.252 C 338.608 114.569,338.582 114.557,335.021 114.557 C 332.907 114.557,331.862 114.636,331.688 114.810 C 331.288 115.209,331.326 139.731,331.726 140.064 C 331.927 140.230,333.131 140.288,335.576 140.248 L 339.135 140.190 339.241 132.911 C 339.380 123.282,339.666 122.717,344.726 122.066 L 346.519 121.835 346.654 120.570 C 346.729 119.873,346.800 118.093,346.813 116.614 L 346.835 113.924 345.939 113.950 C 345.446 113.965,344.577 114.103,344.009 114.258 M358.439 114.318 C 346.912 117.312,345.099 134.733,355.802 139.650 C 356.382 139.917,357.017 140.215,357.212 140.314 C 360.725 142.084,367.719 140.697,370.963 137.587 C 373.605 135.055,373.677 134.587,371.572 133.618 C 370.672 133.204,369.444 132.639,368.842 132.361 C 367.369 131.682,367.235 131.706,366.196 132.838 C 363.161 136.146,358.583 135.134,357.033 130.811 C 356.563 129.503,356.340 129.536,365.630 129.536 L 374.036 129.536 374.282 129.075 C 374.886 127.948,374.012 122.885,372.779 120.359 C 370.332 115.347,364.284 112.799,358.439 114.318 M244.854 114.891 C 244.686 115.327,244.686 139.526,244.854 139.962 C 245.019 140.393,251.854 140.467,252.278 140.042 C 252.644 139.677,252.644 115.176,252.278 114.810 C 251.854 114.385,245.019 114.460,244.854 114.891 M317.639 114.891 C 317.471 115.327,317.471 139.526,317.639 139.962 C 317.804 140.393,324.639 140.467,325.063 140.042 C 325.332 139.774,325.452 115.577,325.188 114.891 C 325.078 114.604,324.544 114.557,321.414 114.557 C 318.283 114.557,317.749 114.604,317.639 114.891 M363.312 120.071 C 364.623 120.510,365.859 122.014,366.216 123.607 C 366.465 124.714,366.596 124.684,361.533 124.680 C 356.459 124.676,356.586 124.723,357.194 123.083 C 358.147 120.509,360.768 119.219,363.312 120.071 M214.613 120.675 C 219.781 122.608,219.617 132.787,214.393 134.310 C 210.644 135.403,207.725 132.383,207.742 127.426 C 207.760 122.363,210.894 119.283,214.613 120.675 M273.611 121.528 C 279.181 125.328,276.040 135.547,269.668 134.356 C 264.595 133.409,263.360 124.300,267.915 121.425 C 269.523 120.410,272.039 120.455,273.611 121.528 M304.124 129.341 C 304.766 130.380,303.482 133.099,301.845 134.172 C 298.440 136.400,294.264 133.666,297.105 131.068 C 298.524 129.772,303.615 128.518,304.124 129.341 " stroke="none" fill="#ff5505" fill-rule="evenodd"></path></g></svg>